# Blender v2.77 (sub 0) OBJ File: 'LowPolyWCam.blend'
# www.blender.org
mtllib LowPolyWCam.mtl
o Cube
v 0.433322 -0.676561 -0.423107
v 0.313489 -0.913849 0.683722
v 0.451790 0.783114 -0.447820
v 0.465254 0.801116 0.600096
v 0.478409 -0.845583 0.364732
v 0.622445 0.861290 0.231208
v 0.531018 0.059636 -0.572865
v 0.563648 0.009405 0.690530
v 0.676734 0.030589 0.302571
v 0.520625 -1.356259 -0.672794
v 0.678495 -1.383876 0.213154
v 0.639358 -2.077327 -0.614587
v 1.011507 -2.034509 0.703244
v 0.776151 -5.007406 -0.683040
v 0.924104 -4.953784 0.335843
v 0.699974 -3.103356 -0.365546
v 0.838602 -3.199652 0.520043
v 0.827978 -4.282872 -0.540180
v 0.735331 -4.236113 0.302956
v 1.559487 -1.931769 -0.388322
v 1.433690 -1.353425 -0.357964
v 1.502197 -1.303270 0.302407
v 1.462831 -1.779534 0.353897
v 1.317781 -2.297191 -0.466591
v 1.903871 -2.238927 -0.388169
v 1.849698 -2.219316 0.267691
v 1.404334 -2.277972 0.216985
v 1.403778 -3.602006 -0.231277
v 1.951049 -3.463335 -0.218966
v 1.867351 -3.149189 0.280612
v 1.416078 -3.279338 0.380327
v 1.310264 -4.033237 -0.219653
v 2.018980 -4.080322 -0.103886
v 1.912856 -3.893507 0.473899
v 1.370543 -3.727026 0.512202
v 1.407820 -4.409991 0.044483
v 1.862443 -4.556974 0.169777
v 1.811023 -4.392234 0.462847
v 1.475771 -4.481094 0.548202
v 1.310515 -5.494667 0.205850
v 1.362408 -5.496561 0.974828
v 1.559170 -4.881063 0.931935
v 1.580225 -5.154217 0.735842
v 1.538232 -5.150898 0.126612
v 1.223770 -5.070585 0.135451
v 1.394110 -4.962939 0.748638
v 1.221404 -5.128466 0.202360
v 1.275113 -5.133821 0.963693
v 0.688841 -6.318492 -0.439760
v 0.180338 -6.348392 -0.484661
v 0.497663 -6.370996 0.622008
v 0.829395 -6.324740 0.596631
v 0.685382 -7.446155 -0.409153
v 0.289133 -7.519722 -0.441656
v 0.394727 -7.539927 0.385800
v 0.796165 -7.440996 0.349288
v 0.818122 -8.700550 -0.597183
v 0.360352 -8.769316 -0.660470
v 0.285986 -8.789885 0.189488
v 0.899301 -8.748216 0.317212
v 0.289590 -8.217695 0.279101
v 0.901064 -8.007494 0.321129
v 0.328577 -8.174741 -0.592326
v 0.770725 -8.108789 -0.527112
v 0.521652 -0.992335 0.112193
v 0.396592 -1.007828 -0.581430
v 0.579619 -0.768414 -0.135792
v 0.703004 0.896665 -0.150613
v 0.796971 0.065546 -0.152577
v 0.751986 -1.248380 -0.262671
v 1.342969 -2.215569 -0.048031
v 1.093558 -4.892941 -0.176741
v 0.930709 -3.157584 0.099689
v 1.012095 -4.141663 -0.031497
v 1.489130 -1.242188 -0.052333
v 1.502412 -1.932005 0.001133
v 1.949198 -2.243327 -0.056180
v 1.276078 -2.300052 -0.112398
v 1.992986 -3.297032 0.035988
v 1.325637 -3.437750 0.078814
v 2.061179 -4.019041 0.190305
v 1.256083 -3.879475 0.150868
v 1.903265 -4.470654 0.333832
v 1.358435 -4.439999 0.307710
v 1.323137 -5.580996 0.588014
v 1.624851 -5.138844 0.442025
v 1.231564 -4.982819 0.455896
v 1.165013 -5.115360 0.589360
v 0.135036 -6.435173 0.082967
v 0.988306 -6.273519 -0.036176
v 0.281156 -7.529512 -0.023429
v 0.893713 -7.478720 -0.021525
v 0.281876 -8.822795 -0.239700
v 0.976635 -8.804070 -0.227875
v 0.968322 -8.148220 -0.151443
v 0.249235 -8.193691 -0.157344
v 0.614022 -0.972692 -0.200249
v 0.934319 -8.719618 0.843611
v 0.143079 -8.663825 0.950489
v 0.291945 -8.256969 0.802440
v 0.901949 -8.143325 0.679884
v 1.033514 -8.771331 1.353282
v 0.375518 -8.735991 1.390683
v 0.423009 -8.341335 1.530272
v 1.072628 -8.336024 1.501420
v -0.433322 -0.676561 -0.423107
v -0.313489 -0.913849 0.683722
v -0.451790 0.783114 -0.447820
v -0.465254 0.801116 0.600096
v -0.000000 -0.770562 -0.747750
v 0.000000 -0.994333 0.899402
v 0.000000 0.902165 -0.581519
v 0.000000 0.870198 0.893009
v -0.478409 -0.845583 0.364732
v -0.622445 0.861290 0.231208
v 0.000000 1.001862 0.464843
v 0.000000 -0.973345 0.345867
v -0.531018 0.059636 -0.572865
v -0.563648 0.009405 0.690530
v 0.000000 -0.052477 1.020879
v 0.000000 -0.014117 -0.869226
v -0.676734 0.030589 0.302571
v -0.520625 -1.356259 -0.672794
v -0.000000 -1.337212 -0.893950
v -0.000000 -1.359766 0.538474
v -0.678495 -1.383876 0.213154
v -0.639358 -2.077327 -0.614587
v -0.000000 -2.083896 -0.698126
v -0.000000 -2.243093 0.772115
v -1.011507 -2.034509 0.703244
v -0.776151 -5.007406 -0.683040
v -0.000000 -5.061099 -0.840308
v -0.000000 -4.984861 0.602720
v -0.924104 -4.953784 0.335843
v -0.699974 -3.103356 -0.365546
v 0.000000 -3.176629 -0.601431
v 0.000000 -3.204289 0.735475
v -0.838602 -3.199652 0.520043
v -0.827978 -4.282872 -0.540180
v 0.000000 -4.586828 0.611552
v 0.000000 -4.239011 -0.664666
v -0.735331 -4.236113 0.302956
v -1.564159 -1.925731 -0.388322
v -1.435234 -1.352873 -0.357964
v -1.506588 -1.300209 0.302407
v -1.466581 -1.774952 0.353897
v -1.331985 -2.232752 -0.466591
v -1.919352 -2.201977 -0.388169
v -1.866078 -2.178364 0.267691
v -1.420417 -2.216661 0.216985
v -1.359884 -3.538175 -0.231277
v -1.912953 -3.424818 -0.218966
v -1.843791 -3.107155 0.280612
v -1.387009 -3.216414 0.380327
v -1.246637 -3.964649 -0.219653
v -1.952438 -4.044276 -0.103886
v -1.855018 -3.852779 0.473899
v -1.320938 -3.661556 0.512152
v -1.327234 -4.346243 0.043874
v -1.775173 -4.514371 0.171620
v -1.730358 -4.346294 0.462847
v -1.391373 -4.419644 0.548202
v -1.202645 -5.440541 0.308532
v -1.184032 -5.347892 1.068263
v -1.452020 -4.817143 0.934280
v -1.433055 -5.040144 0.814630
v -1.448055 -5.114816 0.202315
v -1.137171 -5.025549 0.172614
v -1.253820 -4.844339 0.784206
v -1.127181 -5.075179 0.246773
v -1.108569 -4.982529 1.006503
v -0.688841 -6.318492 -0.439760
v -0.180338 -6.348392 -0.484661
v -0.497663 -6.370996 0.622008
v -0.829395 -6.324740 0.596631
v -0.685383 -7.446155 -0.409153
v -0.289133 -7.519722 -0.441656
v -0.394728 -7.539927 0.385800
v -0.796165 -7.440996 0.349288
v -0.818122 -8.700550 -0.597183
v -0.360352 -8.769316 -0.660470
v -0.285986 -8.789885 0.189488
v -0.899301 -8.748216 0.317212
v -0.289590 -8.217695 0.279101
v -0.901064 -8.007494 0.321129
v -0.328577 -8.174741 -0.592326
v -0.770725 -8.108789 -0.527112
v -0.000000 -1.044820 -0.791364
v -0.000000 -1.153282 0.388209
v -0.521652 -0.992335 0.112193
v -0.396592 -1.007828 -0.581430
v -0.579619 -0.768414 -0.135792
v -0.703004 0.896665 -0.150613
v 0.000000 1.071665 -0.205525
v -0.796971 0.065546 -0.152577
v -0.751986 -1.248379 -0.262671
v -1.342969 -2.215569 -0.048031
v 0.000000 -5.035186 -0.149947
v -1.093558 -4.892941 -0.176741
v -0.930709 -3.157584 0.099689
v -1.012095 -4.141663 -0.031497
v -1.492733 -1.240277 -0.052333
v -1.506579 -1.926987 0.001133
v -1.965638 -2.207347 -0.056180
v -1.291473 -2.233162 -0.112398
v -1.962493 -3.260620 0.035988
v -1.289380 -3.370499 0.078814
v -1.997411 -3.985001 0.190305
v -1.199585 -3.808558 0.150868
v -1.818926 -4.428894 0.334085
v -1.276087 -4.373444 0.306840
v -1.175528 -5.476212 0.697959
v -1.506345 -5.065326 0.525167
v -1.119348 -4.898568 0.481634
v -1.035446 -5.010700 0.623818
v -0.135036 -6.435173 0.082967
v -0.988306 -6.273519 -0.036176
v -0.281156 -7.529512 -0.023429
v -0.893713 -7.478720 -0.021525
v -0.281876 -8.822795 -0.239700
v -0.976635 -8.804070 -0.227874
v -0.968322 -8.148220 -0.151443
v -0.249235 -8.193691 -0.157344
v -0.614022 -0.972692 -0.200249
v -0.934319 -8.719618 0.843611
v -0.143079 -8.663825 0.950489
v -0.291945 -8.256969 0.802440
v -0.901949 -8.143325 0.679884
v -1.033514 -8.771331 1.353282
v -0.375518 -8.735991 1.390683
v -0.423009 -8.341335 1.530272
v -1.072628 -8.336024 1.501420
vn 0.930500 0.122000 0.345400
vn 0.310600 0.908400 0.279900
vn 0.513900 0.137300 0.846800
vn 0.241500 -0.968900 -0.053500
vn 0.554600 -0.183800 -0.811600
vn 0.361600 0.440100 0.821900
vn 0.244700 0.962800 0.115000
vn 0.966000 0.096200 0.239800
vn 0.955100 -0.223100 0.195100
vn 0.398300 0.242000 -0.884800
vn 0.539100 -0.129500 0.832200
vn 0.917300 -0.218400 0.333100
vn 0.156200 0.449000 0.879800
vn 0.876600 0.402500 0.263700
vn 0.395300 0.335300 -0.855100
vn 0.168600 0.193400 -0.966500
vn 0.280500 0.032200 -0.959300
vn 0.249900 -0.145500 -0.957300
vn 0.961600 -0.030100 0.272700
vn 0.311700 0.073200 0.947400
vn 0.868500 0.123100 0.480100
vn 0.899100 -0.255700 0.355400
vn 0.163800 -0.114600 0.979800
vn 0.237800 -0.149800 -0.959700
vn 0.901200 -0.083100 0.425400
vn 0.341900 -0.145500 0.928400
vn 0.225900 0.115500 -0.967300
vn 0.109400 -0.097700 0.989200
vn 0.064700 0.445900 0.892700
vn -0.096700 0.970100 0.222600
vn 0.425100 -0.809600 -0.404700
vn 0.913800 0.382200 0.137300
vn -0.825200 0.554600 -0.107300
vn 0.092000 0.102700 -0.990400
vn -0.984100 -0.082100 -0.157600
vn 0.142200 0.260500 0.954900
vn -0.961400 -0.253400 -0.107600
vn 0.907800 0.162100 0.386900
vn -0.954100 0.153600 -0.257200
vn 0.109500 -0.121900 -0.986500
vn 0.084800 -0.535400 -0.840300
vn 0.141200 0.020100 0.989800
vn 0.821000 -0.147500 0.551600
vn 0.988000 0.021900 -0.152900
vn 0.035200 0.091400 0.995200
vn 0.105000 -0.151700 -0.982800
vn 0.845600 -0.530300 0.060500
vn 0.913400 -0.237000 0.331000
vn -0.968400 0.231900 -0.092000
vn -0.755700 0.064400 0.651700
vn 0.681300 0.292700 0.670900
vn 0.123700 -0.087800 -0.988400
vn -0.938500 -0.275600 0.208100
vn -0.241300 -0.206800 -0.948200
vn -0.964800 0.243000 -0.100900
vn 0.585500 0.286700 0.758300
vn 0.966200 -0.077800 0.245800
vn 0.165500 -0.215900 -0.962300
vn 0.217100 0.130000 0.967400
vn -0.991200 -0.125500 -0.041800
vn -0.982300 0.146000 -0.117400
vn 0.088400 -0.027800 -0.995700
vn 0.123900 -0.212500 0.969300
vn -0.991900 -0.109800 -0.064400
vn 0.036000 -0.995000 0.093400
vn -0.982600 -0.029100 -0.183700
vn 0.990000 -0.003500 0.141300
vn 0.122200 0.122900 -0.984900
vn 0.079300 0.206300 -0.975300
vn 0.978700 0.121000 0.165700
vn -0.994700 0.016200 -0.101300
vn 0.027500 -0.107700 0.993800
vn 0.496800 0.247300 -0.831900
vn 0.972600 0.005400 0.232200
vn 0.345300 -0.475100 0.809400
vn 0.869500 0.186500 -0.457300
vn -0.981100 0.067700 0.181300
vn 0.874400 0.188200 -0.447200
vn 0.905200 0.089200 -0.415600
vn -0.998200 -0.031500 0.051600
vn 0.087200 -0.975400 -0.202700
vn -0.888500 -0.085200 0.451000
vn -0.941100 -0.188300 0.280900
vn 0.841000 -0.045800 -0.539000
vn -0.655400 0.706700 0.266400
vn -0.955300 -0.284100 -0.081400
vn -0.832800 0.322600 0.449900
vn 0.889500 -0.432300 -0.147700
vn 0.792600 -0.584100 -0.175000
vn 0.933500 0.047700 0.355300
vn 0.937100 -0.344000 -0.059000
vn -0.960900 0.173800 0.215500
vn 0.982100 0.064200 -0.177100
vn -0.923500 -0.091200 0.372600
vn -0.946800 0.026000 0.320800
vn -0.952900 0.299600 0.047200
vn 0.875100 0.435300 -0.211200
vn 0.708200 -0.573800 0.411400
vn 0.099000 0.939700 -0.327400
vn 0.905700 0.144000 -0.398700
vn 0.691300 -0.259500 -0.674400
vn 0.880200 0.107900 -0.462100
vn 0.830900 -0.136400 -0.539400
vn 0.746200 0.437000 -0.502200
vn 0.830800 -0.220900 -0.510900
vn 0.792600 0.136800 -0.594100
vn 0.288900 0.839200 -0.460700
vn 0.979700 -0.009600 -0.200400
vn -0.239900 0.952000 0.189900
vn 0.999100 0.018600 -0.038300
vn -0.011700 -0.992900 0.118300
vn 0.040200 -0.331000 0.942800
vn -0.072700 -0.991900 -0.104000
vn -0.069800 0.979500 0.188800
vn -0.920400 0.228800 0.317100
vn -0.930500 0.122000 0.345400
vn -0.310600 0.908400 0.279900
vn -0.513900 0.137300 0.846800
vn -0.241500 -0.968900 -0.053500
vn -0.554600 -0.183800 -0.811600
vn -0.361600 0.440100 0.821900
vn -0.244700 0.962800 0.115000
vn -0.966000 0.096200 0.239800
vn -0.955100 -0.223100 0.195100
vn -0.398300 0.242000 -0.884800
vn -0.539100 -0.129500 0.832200
vn -0.917300 -0.218400 0.333100
vn -0.156200 0.449000 0.879800
vn -0.876600 0.402500 0.263700
vn -0.395300 0.335300 -0.855100
vn -0.168600 0.193400 -0.966500
vn -0.279500 0.032800 -0.959600
vn -0.249900 -0.145500 -0.957300
vn -0.961600 -0.030100 0.272700
vn -0.311700 0.073200 0.947400
vn -0.868500 0.123100 0.480100
vn -0.899100 -0.255700 0.355400
vn -0.163800 -0.114600 0.979800
vn -0.237800 -0.149800 -0.959700
vn -0.901200 -0.083100 0.425400
vn -0.341900 -0.145500 0.928400
vn -0.225900 0.115500 -0.967300
vn -0.109900 -0.102500 0.988700
vn -0.061800 0.445800 0.893000
vn 0.099000 0.970200 0.221200
vn -0.429100 -0.806000 -0.407600
vn -0.904500 0.405300 0.132700
vn 0.788100 0.606900 -0.102600
vn -0.087500 0.111900 -0.989900
vn 0.987100 -0.037600 -0.155500
vn -0.154000 0.253600 0.955000
vn 0.971900 -0.209200 -0.108100
vn -0.914300 0.120200 0.386900
vn 0.946000 0.197300 -0.257200
vn -0.103800 -0.126800 -0.986500
vn -0.061600 -0.538800 -0.840200
vn -0.142000 0.013600 0.989800
vn -0.813200 -0.184900 0.551800
vn -0.987600 -0.022000 -0.155300
vn -0.039400 0.089800 0.995200
vn -0.098000 -0.156400 -0.982800
vn -0.817600 -0.537800 0.205400
vn -0.882900 -0.240100 0.403600
vn 0.958900 0.236600 -0.156900
vn 0.603600 0.280000 0.746500
vn -0.615400 0.345500 0.708400
vn -0.141500 -0.178500 -0.973700
vn 0.962600 -0.225000 0.151100
vn 0.169500 -0.330800 -0.928400
vn 0.942300 0.251700 -0.220700
vn -0.521200 0.363400 0.772200
vn -0.966200 -0.077800 0.245800
vn -0.165500 -0.215900 -0.962300
vn -0.217100 0.130000 0.967400
vn 0.991200 -0.125500 -0.041800
vn 0.982300 0.146000 -0.117400
vn -0.088400 -0.027800 -0.995700
vn -0.123900 -0.212500 0.969300
vn 0.991900 -0.109800 -0.064400
vn -0.036000 -0.995000 0.093400
vn 0.982600 -0.029100 -0.183700
vn -0.990000 -0.003500 0.141300
vn -0.122200 0.122900 -0.984900
vn -0.079300 0.206300 -0.975300
vn -0.978700 0.121000 0.165700
vn 0.994700 0.016200 -0.101300
vn -0.027500 -0.107700 0.993800
vn -0.496800 0.247300 -0.831900
vn -0.972600 0.005400 0.232200
vn -0.345300 -0.475100 0.809400
vn -0.869500 0.186500 -0.457300
vn 0.981100 0.067700 0.181300
vn -0.874400 0.188200 -0.447200
vn -0.905200 0.089200 -0.415600
vn 0.998200 -0.031500 0.051600
vn -0.087200 -0.975400 -0.202700
vn 0.888500 -0.085200 0.451000
vn 0.941100 -0.188300 0.280900
vn -0.841000 -0.045800 -0.539000
vn 0.651000 0.751500 0.106800
vn 0.953000 -0.269800 -0.137600
vn 0.827800 0.418200 0.373900
vn -0.882700 -0.466600 -0.055900
vn -0.783300 -0.621200 -0.022200
vn -0.934300 0.006900 0.356500
vn -0.921300 -0.384700 -0.057000
vn 0.951900 0.217800 0.215600
vn -0.984000 0.019000 -0.177100
vn 0.926900 -0.048900 0.372100
vn 0.944700 0.068900 0.320600
vn 0.947700 0.315800 0.045500
vn -0.861900 0.458200 -0.217300
vn -0.708100 -0.573900 0.411400
vn -0.097800 0.939300 -0.328800
vn -0.905700 0.144000 -0.398700
vn -0.691300 -0.259500 -0.674400
vn -0.880200 0.107900 -0.462100
vn -0.830900 -0.136400 -0.539400
vn -0.746200 0.437000 -0.502200
vn -0.830800 -0.220900 -0.510900
vn -0.792600 0.136800 -0.594100
vn -0.288900 0.839200 -0.460700
vn -0.979700 -0.009600 -0.200400
vn 0.239900 0.952000 0.189900
vn -0.999100 0.018600 -0.038300
vn 0.011700 -0.992900 0.118300
vn -0.040200 -0.331000 0.942800
vn 0.072700 -0.991900 -0.104000
vn 0.069800 0.979500 0.188800
vn 0.920400 0.228800 0.317100
usemtl Material
s off
f 9//1 6//1 4//1 8//1
f 6//2 116//2 113//2 4//2
f 8//3 4//3 113//3 120//3
f 5//4 2//4 111//4 117//4
f 7//5 1//5 110//5 121//5
f 65//6 189//6 125//6 11//6
f 68//7 194//7 116//7 6//7
f 69//8 68//8 6//8 9//8
f 67//9 69//9 9//9 5//9
f 3//10 7//10 121//10 112//10
f 2//11 8//11 120//11 111//11
f 5//12 9//12 8//12 2//12
f 11//13 125//13 129//13 13//13
f 97//14 65//14 11//14 70//14
f 188//15 66//15 10//15 124//15
f 141//16 18//16 14//16 132//16
f 12//17 10//17 21//17 20//17
f 124//18 10//18 12//18 128//18
f 72//19 15//19 52//19 90//19
f 19//20 140//20 133//20 15//20
f 74//21 19//21 15//21 72//21
f 71//22 13//22 17//22 73//22
f 13//23 129//23 137//23 17//23
f 128//24 12//24 16//24 136//24
f 73//25 17//25 19//25 74//25
f 17//26 137//26 140//26 19//26
f 136//27 16//27 18//27 141//27
f 22//28 23//28 27//28 26//28
f 11//29 13//29 23//29 22//29
f 70//30 11//30 22//30 75//30
f 71//31 12//31 20//31 76//31
f 75//32 22//32 26//32 77//32
f 76//33 20//33 24//33 78//33
f 20//34 21//34 25//34 24//34
f 78//35 24//35 28//35 80//35
f 30//36 31//36 35//36 34//36
f 82//37 32//37 36//37 84//37
f 79//38 30//38 34//38 81//38
f 80//39 28//39 32//39 82//39
f 28//40 29//40 33//40 32//40
f 32//41 33//41 37//41 36//41
f 34//42 35//42 39//42 38//42
f 81//43 34//43 38//43 83//43
f 77//44 79//44 29//44 25//44
f 26//45 27//45 31//45 30//45
f 25//46 29//46 28//46 24//46
f 86//47 43//47 41//47 85//47
f 83//48 38//48 43//48 86//48
f 84//49 36//49 45//49 87//49
f 39//50 46//50 43//50 42//50
f 38//51 39//51 42//51 43//51
f 36//52 37//52 44//52 45//52
f 85//53 41//53 48//53 88//53
f 40//54 47//54 45//54 44//54
f 87//55 45//55 47//55 88//55
f 41//56 43//56 46//56 48//56
f 90//57 52//57 56//57 92//57
f 132//58 14//58 49//58 50//58
f 15//59 133//59 51//59 52//59
f 198//60 132//60 50//60 89//60
f 61//61 59//61 99//61 100//61
f 50//62 49//62 53//62 54//62
f 52//63 51//63 55//63 56//63
f 89//64 50//64 54//64 91//64
f 94//65 60//65 59//65 93//65
f 96//66 63//66 58//66 93//66
f 95//67 62//67 60//67 94//67
f 63//68 64//68 57//68 58//68
f 54//69 53//69 64//69 63//69
f 92//70 56//70 62//70 95//70
f 91//71 54//71 63//71 96//71
f 56//72 55//72 61//72 62//72
f 110//73 1//73 66//73 188//73
f 67//74 5//74 65//74 97//74
f 5//75 117//75 189//75 65//75
f 1//76 67//76 97//76 66//76
f 55//77 91//77 96//77 61//77
f 53//78 92//78 95//78 64//78
f 64//79 95//79 94//79 57//79
f 61//80 96//80 93//80 59//80
f 57//81 94//81 93//81 58//81
f 51//82 89//82 91//82 55//82
f 133//83 198//83 89//83 51//83
f 49//84 90//84 92//84 53//84
f 46//85 87//85 88//85 48//85
f 40//86 85//86 88//86 47//86
f 39//87 84//87 87//87 46//87
f 37//88 83//88 86//88 44//88
f 44//89 86//89 85//89 40//89
f 26//90 30//90 79//90 77//90
f 33//91 81//91 83//91 37//91
f 31//92 80//92 82//92 35//92
f 29//93 79//93 81//93 33//93
f 35//94 82//94 84//94 39//94
f 27//95 78//95 80//95 31//95
f 23//96 76//96 78//96 27//96
f 21//97 75//97 77//97 25//97
f 13//98 71//98 76//98 23//98
f 10//99 70//99 75//99 21//99
f 16//100 73//100 74//100 18//100
f 12//101 71//101 73//101 16//101
f 18//102 74//102 72//102 14//102
f 14//103 72//103 90//103 49//103
f 66//104 97//104 70//104 10//104
f 1//105 7//105 69//105 67//105
f 7//106 3//106 68//106 69//106
f 3//107 112//107 194//107 68//107
f 98//108 101//108 105//108 102//108
f 62//109 61//109 100//109 101//109
f 60//110 62//110 101//110 98//110
f 59//111 60//111 98//111 99//111
f 105//112 104//112 103//112 102//112
f 99//113 98//113 102//113 103//113
f 101//114 100//114 104//114 105//114
f 100//115 99//115 103//115 104//115
f 122//116 119//116 109//116 115//116
f 115//117 109//117 113//117 116//117
f 119//118 120//118 113//118 109//118
f 114//119 117//119 111//119 107//119
f 118//120 121//120 110//120 106//120
f 190//121 126//121 125//121 189//121
f 193//122 115//122 116//122 194//122
f 195//123 122//123 115//123 193//123
f 192//124 114//124 122//124 195//124
f 108//125 112//125 121//125 118//125
f 107//126 111//126 120//126 119//126
f 114//127 107//127 119//127 122//127
f 126//128 130//128 129//128 125//128
f 224//129 196//129 126//129 190//129
f 188//130 124//130 123//130 191//130
f 141//131 132//131 131//131 139//131
f 127//132 143//132 144//132 123//132
f 124//133 128//133 127//133 123//133
f 199//134 217//134 175//134 134//134
f 142//135 134//135 133//135 140//135
f 201//136 199//136 134//136 142//136
f 197//137 200//137 138//137 130//137
f 130//138 138//138 137//138 129//138
f 128//139 136//139 135//139 127//139
f 200//140 201//140 142//140 138//140
f 138//141 142//141 140//141 137//141
f 136//142 141//142 139//142 135//142
f 145//143 149//143 150//143 146//143
f 126//144 145//144 146//144 130//144
f 196//145 202//145 145//145 126//145
f 197//146 203//146 143//146 127//146
f 202//147 204//147 149//147 145//147
f 203//148 205//148 147//148 143//148
f 143//149 147//149 148//149 144//149
f 205//150 207//150 151//150 147//150
f 153//151 157//151 158//151 154//151
f 209//152 211//152 159//152 155//152
f 206//153 208//153 157//153 153//153
f 207//154 209//154 155//154 151//154
f 151//155 155//155 156//155 152//155
f 155//156 159//156 160//156 156//156
f 157//157 161//157 162//157 158//157
f 208//158 210//158 161//158 157//158
f 204//159 148//159 152//159 206//159
f 149//160 153//160 154//160 150//160
f 148//161 147//161 151//161 152//161
f 213//162 212//162 164//162 166//162
f 210//163 213//163 166//163 161//163
f 211//164 214//164 168//164 159//164
f 162//165 165//165 166//165 169//165
f 161//166 166//166 165//166 162//166
f 159//167 168//167 167//167 160//167
f 212//168 215//168 171//168 164//168
f 163//169 167//169 168//169 170//169
f 214//170 215//170 170//170 168//170
f 164//171 171//171 169//171 166//171
f 217//172 219//172 179//172 175//172
f 132//173 173//173 172//173 131//173
f 134//174 175//174 174//174 133//174
f 198//175 216//175 173//175 132//175
f 184//176 227//176 226//176 182//176
f 173//177 177//177 176//177 172//177
f 175//178 179//178 178//178 174//178
f 216//179 218//179 177//179 173//179
f 221//180 220//180 182//180 183//180
f 223//181 220//181 181//181 186//181
f 222//182 221//182 183//182 185//182
f 186//183 181//183 180//183 187//183
f 177//184 186//184 187//184 176//184
f 219//185 222//185 185//185 179//185
f 218//186 223//186 186//186 177//186
f 179//187 185//187 184//187 178//187
f 110//188 188//188 191//188 106//188
f 192//189 224//189 190//189 114//189
f 114//190 190//190 189//190 117//190
f 106//191 191//191 224//191 192//191
f 178//192 184//192 223//192 218//192
f 176//193 187//193 222//193 219//193
f 187//194 180//194 221//194 222//194
f 184//195 182//195 220//195 223//195
f 180//196 181//196 220//196 221//196
f 174//197 178//197 218//197 216//197
f 133//198 174//198 216//198 198//198
f 172//199 176//199 219//199 217//199
f 169//200 171//200 215//200 214//200
f 163//201 170//201 215//201 212//201
f 162//202 169//202 214//202 211//202
f 160//203 167//203 213//203 210//203
f 167//204 163//204 212//204 213//204
f 149//205 204//205 206//205 153//205
f 156//206 160//206 210//206 208//206
f 154//207 158//207 209//207 207//207
f 152//208 156//208 208//208 206//208
f 158//209 162//209 211//209 209//209
f 150//210 154//210 207//210 205//210
f 146//211 150//211 205//211 203//211
f 144//212 148//212 204//212 202//212
f 130//213 146//213 203//213 197//213
f 123//214 144//214 202//214 196//214
f 135//215 139//215 201//215 200//215
f 127//216 135//216 200//216 197//216
f 139//217 131//217 199//217 201//217
f 131//218 172//218 217//218 199//218
f 191//219 123//219 196//219 224//219
f 106//220 192//220 195//220 118//220
f 118//221 195//221 193//221 108//221
f 108//222 193//222 194//222 112//222
f 225//223 229//223 232//223 228//223
f 185//224 228//224 227//224 184//224
f 183//225 225//225 228//225 185//225
f 182//226 226//226 225//226 183//226
f 232//227 229//227 230//227 231//227
f 226//228 230//228 229//228 225//228
f 228//229 232//229 231//229 227//229
f 227//230 231//230 230//230 226//230
